PathFileType	4	(X/Y/Z)	 s08c0001.trc
DataRate	CameraRate	NumFrames	NumMarkers	Units	OrigDataRate	OrigDataStartFrame	OrigNumFrames
200	200	5	49	mm	200	751	2000
Frame#	Time	racr			lacr			c7			jug			rlel			rdr			llel			ldr			s2			lic			ric			lasi			rasi			rpsi			lpsi			rgt			lgt			rth1			rth2			rth3			rth4			rlfc			rmfc			rsh1			rsh2			rsh3			rsh4			rlmal			rmmal			rcal			rtoe			rmt5			rmt1			lth1			lth2			lth4			lth3			llfc			lmfc			llmal			lmmal			lcal			lmt1			lmt5			lsh1			lsh2			lsh3			lsh4			ltoe			
		X1	Y1	Z1	X2	Y2	Z2	X3	Y3	Z3	X4	Y4	Z4	X5	Y5	Z5	X6	Y6	Z6	X7	Y7	Z7	X8	Y8	Z8	X9	Y9	Z9	X10	Y10	Z10	X11	Y11	Z11	X12	Y12	Z12	X13	Y13	Z13	X14	Y14	Z14	X15	Y15	Z15	X16	Y16	Z16	X17	Y17	Z17	X18	Y18	Z18	X19	Y19	Z19	X20	Y20	Z20	X21	Y21	Z21	X22	Y22	Z22	X23	Y23	Z23	X24	Y24	Z24	X25	Y25	Z25	X26	Y26	Z26	X27	Y27	Z27	X28	Y28	Z28	X29	Y29	Z29	X30	Y30	Z30	X31	Y31	Z31	X32	Y32	Z32	X33	Y33	Z33	X34	Y34	Z34	X35	Y35	Z35	X36	Y36	Z36	X37	Y37	Z37	X38	Y38	Z38	X39	Y39	Z39	X40	Y40	Z40	X41	Y41	Z41	X42	Y42	Z42	X43	Y43	Z43	X44	Y44	Z44	X45	Y45	Z45	X46	Y46	Z46	X47	Y47	Z47	X48	Y48	Z48	X49	Y49	Z49	
751	3.7550	420.477582	1529.618749	594.022133	408.664942	1544.278226	197.444896	362.273932	1584.030568	394.514400	492.341532	1487.565353	393.056710	378.271660	1236.593792	679.970996	450.955112	959.557951	791.890191	385.785243	1243.923340	97.507947	441.519319	972.124104	-6.409706	327.190346	1028.219804	403.283114	472.618678	1094.443807	237.345011	478.874598	1100.251989	554.766364	522.569382	1036.559170	268.373383	535.447772	1033.896600	520.119953	348.952246	1067.915290	450.667165	347.638291	1075.685756	351.439736	422.767658	955.578247	576.255868	427.033431	943.652083	210.954822	435.743283	804.241460	592.208808	457.299781	718.377901	587.895996	494.448810	719.132208	579.746104	434.274546	635.125892	577.862593	438.094626	512.095560	558.756784	422.439217	499.948700	455.310766	398.411693	387.310622	593.296844	421.478406	301.311772	575.800207	398.200994	218.366166	569.232936	448.110509	305.961286	545.758150	392.468636	97.766703	555.641261	407.429081	122.386034	469.938880	321.400115	65.435714	507.916685	612.023178	79.109216	510.523812	535.365675	47.902798	577.136844	538.680728	47.754211	464.035144	443.902650	814.965781	188.775247	463.326876	729.680874	192.597515	499.509713	730.494293	201.063209	436.155848	645.370708	195.627162	430.211538	518.648740	216.392310	435.434377	496.293112	314.845626	381.842595	106.974249	221.604471	411.959808	126.496007	301.792412	325.116960	74.236033	264.433963	541.927659	47.216643	295.859226	528.697134	43.058672	181.183238	408.659531	394.115824	190.145185	422.312534	310.660380	207.428196	393.779147	227.062806	207.376685	443.705207	313.163718	239.863380	610.492626	81.670052	243.122630	
752	3.7600	420.537983	1529.612984	594.018882	408.752771	1544.249362	197.411197	362.324614	1584.039488	394.531565	492.417937	1487.545517	393.059156	378.319771	1236.603049	679.984851	450.994958	959.541888	791.887071	385.855759	1243.914050	97.494430	441.602583	972.115981	-6.397645	327.200362	1028.256758	403.248294	472.648618	1094.450239	237.337157	478.936873	1100.242558	554.755894	522.613938	1036.556983	268.391837	535.478309	1033.903082	520.111785	348.985752	1067.910666	450.680740	347.669608	1075.688742	351.455544	422.795869	955.581911	576.261329	427.060630	943.654015	210.942944	435.764447	804.246709	592.213988	457.312165	718.386812	587.879933	494.465392	719.130352	579.732842	434.200529	635.044189	577.712709	438.091368	512.097585	558.764400	422.432055	499.940560	455.303548	398.427968	387.311044	593.290181	421.476956	301.351764	575.789248	398.201702	218.365795	569.234816	448.100793	305.947777	545.737534	392.475221	97.779212	555.634382	407.429610	122.380272	469.946645	321.420953	65.420118	507.933495	612.044943	79.118113	510.515470	535.408377	47.898110	577.134036	538.646051	47.772970	464.040745	443.942187	814.972789	188.764936	463.367573	729.685640	192.580811	499.590131	730.498326	201.079168	436.198713	645.379991	195.622556	429.951974	518.562901	216.292093	435.456813	496.280159	314.830807	381.843197	106.973058	221.607354	411.952768	126.479834	301.796991	325.121036	74.222886	264.424486	541.938093	47.230343	295.855936	528.716510	43.055586	181.165690	408.704865	394.119469	190.163194	422.348513	310.652544	207.429351	393.784073	227.032891	207.353371	443.708749	313.137817	239.848672	610.481424	81.674050	243.127716	
753	3.7650	420.595912	1529.608401	594.014658	408.830882	1544.243252	197.398766	362.383352	1584.030826	394.508269	492.471037	1487.558845	393.085486	378.365707	1236.596284	679.981687	451.035970	959.511807	791.856239	385.933964	1243.893730	97.508719	441.684673	972.115996	-6.395782	327.231643	1028.161332	403.300153	472.675012	1094.442199	237.359517	478.969219	1100.242312	554.765921	522.647354	1036.562365	268.392170	535.501593	1033.877140	520.108737	349.032715	1067.910568	450.654158	347.669613	1075.688756	351.455546	422.822551	955.573000	576.273103	427.124628	943.646925	210.955518	435.795132	804.236596	592.209575	457.328894	718.378303	587.877800	494.498301	719.124370	579.741028	434.193253	635.056177	577.731222	438.096702	512.089081	558.768173	422.457049	499.930593	455.327462	398.425347	387.299080	593.265384	421.482602	301.329711	575.799460	398.209818	218.366395	569.230484	448.108857	305.954997	545.756083	392.475221	97.779213	555.634373	407.457631	122.371498	469.931144	321.422775	65.403000	507.930595	612.047069	79.120488	510.490456	535.370468	47.899153	577.131335	538.665427	47.786401	464.042456	443.996917	814.978249	188.772792	463.395367	729.691817	192.588398	499.628406	730.514607	201.047041	436.240014	645.384256	195.626150	430.002034	518.563698	216.292323	435.506662	496.299581	314.849736	381.845305	106.985461	221.596990	411.974834	126.473655	301.816288	325.136004	74.234188	264.438630	541.927474	47.215426	295.860752	528.708226	43.047344	181.187567	408.716154	394.115119	190.166667	422.377702	310.628008	207.453841	393.808491	227.070894	207.387252	443.737822	313.125772	239.866667	610.508699	81.695434	243.138759	
754	3.7700	420.649159	1529.607013	594.027344	408.908731	1544.230679	197.397778	362.428142	1584.028159	394.530559	492.511845	1487.551988	393.055883	378.392469	1236.600339	679.983317	451.083632	959.510881	791.847799	386.001803	1243.886141	97.501848	441.765708	972.111591	-6.389305	327.285970	1028.167376	403.304362	472.703466	1094.444753	237.359927	479.003426	1100.227201	554.763362	522.677063	1036.534748	268.392692	535.559303	1033.885952	520.101352	349.082231	1067.900589	450.676631	347.722744	1075.690727	351.454107	422.858863	955.575934	576.273989	427.163141	943.646265	210.931102	435.809963	804.237007	592.212897	457.346858	718.370981	587.875470	494.520531	719.105266	579.735012	434.178997	635.075307	577.744434	438.109315	512.101478	558.776774	422.438487	499.931663	455.314975	398.447567	387.285490	593.248845	421.455781	301.345687	575.799935	398.228739	218.371743	569.222114	448.108207	305.954697	545.755981	392.465766	97.798197	555.636947	407.426850	122.374138	469.950079	321.401790	65.432743	507.909732	612.059834	79.123392	510.507357	535.391851	47.899305	577.119891	538.645993	47.773048	464.040695	444.031430	814.978757	188.784245	463.436027	729.696785	192.570510	499.682470	730.517584	201.059650	436.394532	645.343661	195.834275	429.994320	518.561803	216.295686	435.548870	496.307507	314.844127	381.857726	106.980588	221.621973	411.974835	126.473657	301.816285	325.139244	74.235842	264.429482	541.955940	47.236828	295.875274	528.730741	43.041888	181.175224	408.748714	394.120132	190.149625	422.377397	310.630471	207.456805	393.811835	227.058726	207.380601	443.774502	313.116093	239.876903	610.499017	81.669318	243.124092	
755	3.7750	420.732885	1529.607070	594.017287	408.971967	1544.225143	197.419393	362.466389	1584.031799	394.526819	492.597072	1487.540953	393.085190	378.466620	1236.603376	680.002057	451.125705	959.497558	791.835739	386.068325	1243.868322	97.500841	441.856436	972.101485	-6.386793	327.341261	1028.176587	403.304736	472.759536	1094.447348	237.360623	479.055094	1100.231974	554.774586	522.726735	1036.520060	268.424784	535.593056	1033.885918	520.121933	349.115726	1067.910285	450.684490	347.779247	1075.675394	351.451191	422.894778	955.574339	576.278843	427.215056	943.660031	210.934756	435.841762	804.240516	592.224580	457.369998	718.364565	587.877048	494.536986	719.115588	579.739726	434.187149	635.073159	577.741333	438.115446	512.087864	558.775600	422.458362	499.928642	455.321339	398.468282	387.274796	593.255586	421.486335	301.328194	575.816075	398.196661	218.368594	569.239310	448.110504	305.957671	545.758362	392.474684	97.779795	555.633887	407.410999	122.393834	469.938062	321.422642	65.417122	507.926556	612.057435	79.152955	510.480937	535.377498	47.923234	577.126925	538.695882	47.768722	464.038049	444.095160	814.976420	188.774829	463.555356	729.613054	192.397973	499.445103	729.411866	203.173809	436.441452	645.341253	195.840809	430.063517	518.577973	216.304531	435.590919	496.290146	314.841680	381.861579	106.967825	221.624606	411.974835	126.473660	301.816282	325.130009	74.242068	264.437023	541.927496	47.216095	295.860035	528.716264	43.056401	181.171331	408.787144	394.123722	190.157026	422.411206	310.641163	207.418892	393.841317	227.065411	207.377377	443.771430	313.106816	239.854115	610.509612	81.655454	243.121173	
